<svg width="136" height="136" viewBox="0 0 136 136" fill="none" xmlns="http://www.w3.org/2000/svg">
<rect width="136" height="136" rx="68" fill="#0F9EEA"/>
<path fill-rule="evenodd" clip-rule="evenodd" d="M50 56C50 51.2261 51.8964 46.6477 55.2721 43.2721C58.6477 39.8964 63.2261 38 68 38C72.7739 38 77.3523 39.8964 80.7279 43.2721C84.1036 46.6477 86 51.2261 86 56H89C90.5913 56 92.1174 56.6321 93.2426 57.7574C94.3679 58.8826 95 60.4087 95 62V92C95 93.5913 94.3679 95.1174 93.2426 96.2426C92.1174 97.3679 90.5913 98 89 98H47C45.4087 98 43.8826 97.3679 42.7574 96.2426C41.6321 95.1174 41 93.5913 41 92V62C41 60.4087 41.6321 58.8826 42.7574 57.7574C43.8826 56.6321 45.4087 56 47 56H50ZM68 44C71.1826 44 74.2348 45.2643 76.4853 47.5147C78.7357 49.7652 80 52.8174 80 56H56C56 52.8174 57.2643 49.7652 59.5147 47.5147C61.7652 45.2643 64.8174 44 68 44ZM74 74C74 75.0532 73.7227 76.0878 73.1961 76.9999C72.6695 77.912 71.9121 78.6694 71 79.196V83C71 83.7957 70.6839 84.5587 70.1213 85.1213C69.5587 85.6839 68.7956 86 68 86C67.2044 86 66.4413 85.6839 65.8787 85.1213C65.3161 84.5587 65 83.7957 65 83V79.196C63.8562 78.5356 62.9623 77.5162 62.4569 76.296C61.9515 75.0757 61.8629 73.7228 62.2047 72.4471C62.5466 71.1713 63.2998 70.044 64.3476 69.24C65.3954 68.4359 66.6792 68.0001 68 68C69.5913 68 71.1174 68.6321 72.2426 69.7574C73.3679 70.8826 74 72.4087 74 74Z" fill="white"/>
</svg>
