<svg width="21" height="21" viewBox="0 0 21 21" fill="none" xmlns="http://www.w3.org/2000/svg">
<path id="Vector" d="M10.5 0.670898C9.18678 0.670898 7.88642 0.929556 6.67317 1.4321C5.45991 1.93465 4.35752 2.67124 3.42893 3.59983C1.55357 5.47519 0.5 8.01873 0.5 10.6709C0.5 15.0909 3.37 18.8409 7.34 20.1709C7.84 20.2509 8 19.9409 8 19.6709V17.9809C5.23 18.5809 4.64 16.6409 4.64 16.6409C4.18 15.4809 3.53 15.1709 3.53 15.1709C2.62 14.5509 3.6 14.5709 3.6 14.5709C4.6 14.6409 5.13 15.6009 5.13 15.6009C6 17.1209 7.47 16.6709 8.04 16.4309C8.13 15.7809 8.39 15.3409 8.67 15.0909C6.45 14.8409 4.12 13.9809 4.12 10.1709C4.12 9.0609 4.5 8.1709 5.15 7.4609C5.05 7.2109 4.7 6.1709 5.25 4.8209C5.25 4.8209 6.09 4.5509 8 5.8409C8.79 5.6209 9.65 5.5109 10.5 5.5109C11.35 5.5109 12.21 5.6209 13 5.8409C14.91 4.5509 15.75 4.8209 15.75 4.8209C16.3 6.1709 15.95 7.2109 15.85 7.4609C16.5 8.1709 16.88 9.0609 16.88 10.1709C16.88 13.9909 14.54 14.8309 12.31 15.0809C12.67 15.3909 13 16.0009 13 16.9309V19.6709C13 19.9409 13.16 20.2609 13.67 20.1709C17.64 18.8309 20.5 15.0909 20.5 10.6709C20.5 9.35768 20.2413 8.05732 19.7388 6.84406C19.2362 5.63081 18.4997 4.52842 17.5711 3.59983C16.6425 2.67124 15.5401 1.93465 14.3268 1.4321C13.1136 0.929556 11.8132 0.670898 10.5 0.670898Z" fill="#222222"/>
</svg>
