<svg width="20" height="21" viewBox="0 0 20 21" fill="none" xmlns="http://www.w3.org/2000/svg">
<path d="M19.7933 10.7518C19.7933 9.94826 19.7267 9.36188 19.5828 8.75378H10.2197V12.3806H15.7156C15.6048 13.282 15.0065 14.6393 13.6768 15.5514L13.6581 15.6729L16.6186 17.9204L16.8237 17.9405C18.7073 16.2356 19.7933 13.7272 19.7933 10.7518" fill="#4285F4"/>
<path d="M10.2184 20.3079C12.9109 20.3079 15.1714 19.4391 16.8224 17.9406L13.6755 15.5516C12.8334 16.1271 11.7032 16.5289 10.2184 16.5289C7.58126 16.5289 5.34301 14.8241 4.54513 12.4677L4.42818 12.4774L1.34989 14.8121L1.30963 14.9218C2.94953 18.1143 6.31803 20.3079 10.2184 20.3079Z" fill="#34A853"/>
<path d="M4.54675 12.4676C4.33622 11.8595 4.21438 11.2079 4.21438 10.5347C4.21438 9.8614 4.33622 9.20989 4.53567 8.6018L4.5301 8.47229L1.41322 6.1001L1.31124 6.14763C0.635352 7.47245 0.247528 8.96015 0.247528 10.5347C0.247528 12.1092 0.635352 13.5969 1.31124 14.9217L4.54675 12.4676" fill="#FBBC05"/>
<path d="M10.2185 4.54049C12.0911 4.54049 13.3542 5.33319 14.0745 5.99564L16.889 3.3026C15.1604 1.72805 12.911 0.761597 10.2185 0.761597C6.31806 0.761597 2.94954 2.95509 1.30963 6.1476L4.53407 8.60177C5.34303 6.24537 7.5813 4.54049 10.2185 4.54049" fill="#EB4335"/>
</svg>
