<svg width="26" height="26" viewBox="0 0 26 26" fill="none" xmlns="http://www.w3.org/2000/svg">
<path d="M13 0C19.9446 0 26 5.73301 26 12.35C26 18.8552 20.0811 23.9746 13 23.9746C11.4855 23.9754 9.98042 23.7359 8.541 23.2648C7.9378 23.8498 7.7311 24.0487 6.4506 25.2837C5.5276 25.9805 4.6592 26.2171 3.8831 25.7777C3.1005 25.3357 2.8652 24.4751 3.0251 23.3415L3.5451 20.3268C1.287 18.2026 0 15.3946 0 12.35C0 5.73301 6.0541 0 13 0ZM13 1.82C7.0382 1.82 1.82 6.76001 1.82 12.35C1.82 15.0085 3.0056 17.4564 5.096 19.279L5.122 19.3011L5.5081 19.6365L5.421 20.1435L5.2416 21.1887L5.1935 21.4669L4.823 23.6223C4.80115 23.7674 4.78813 23.9137 4.784 24.0604V24.1839C4.784 24.1904 4.7827 24.193 4.7814 24.1943C4.7905 24.1813 4.9673 24.1254 5.2702 23.9044L8.0912 21.1666L8.6294 21.3694C10.0274 21.8911 11.5078 22.1575 13 22.1559C19.1308 22.1559 24.18 17.7879 24.18 12.35C24.18 6.76131 18.9618 1.82 13 1.82ZM6.7951 10.1569C7.057 10.1473 7.31813 10.1907 7.56291 10.2843C7.80769 10.3779 8.03108 10.5199 8.21975 10.7018C8.40841 10.8837 8.55847 11.1018 8.66097 11.343C8.76347 11.5842 8.81629 11.8435 8.81629 12.1056C8.81629 12.3677 8.76347 12.6271 8.66097 12.8683C8.55847 13.1095 8.40841 13.3275 8.21975 13.5094C8.03108 13.6913 7.80769 13.8333 7.56291 13.9269C7.31813 14.0206 7.057 14.0639 6.7951 14.0543C6.29059 14.0359 5.81289 13.8225 5.46249 13.4591C5.11209 13.0956 4.91629 12.6105 4.91629 12.1056C4.91629 11.6008 5.11209 11.1156 5.46249 10.7522C5.81289 10.3887 6.29059 10.1753 6.7951 10.1569ZM13.2925 10.1569C13.5544 10.1473 13.8155 10.1907 14.0603 10.2843C14.3051 10.3779 14.5285 10.5199 14.7171 10.7018C14.9058 10.8837 15.0559 11.1018 15.1584 11.343C15.2609 11.5842 15.3137 11.8435 15.3137 12.1056C15.3137 12.3677 15.2609 12.6271 15.1584 12.8683C15.0559 13.1095 14.9058 13.3275 14.7171 13.5094C14.5285 13.6913 14.3051 13.8333 14.0603 13.9269C13.8155 14.0206 13.5544 14.0639 13.2925 14.0543C12.788 14.0359 12.3103 13.8225 11.9599 13.4591C11.6095 13.0956 11.4137 12.6105 11.4137 12.1056C11.4137 11.6008 11.6095 11.1156 11.9599 10.7522C12.3103 10.3887 12.788 10.1753 13.2925 10.1569ZM19.7886 10.1569C20.0505 10.1473 20.3116 10.1907 20.5564 10.2843C20.8012 10.3779 21.0246 10.5199 21.2132 10.7018C21.4019 10.8837 21.552 11.1018 21.6545 11.343C21.757 11.5842 21.8098 11.8435 21.8098 12.1056C21.8098 12.3677 21.757 12.6271 21.6545 12.8683C21.552 13.1095 21.4019 13.3275 21.2132 13.5094C21.0246 13.6913 20.8012 13.8333 20.5564 13.9269C20.3116 14.0206 20.0505 14.0639 19.7886 14.0543C19.2841 14.0359 18.8064 13.8225 18.456 13.4591C18.1056 13.0956 17.9098 12.6105 17.9098 12.1056C17.9098 11.6008 18.1056 11.1156 18.456 10.7522C18.8064 10.3887 19.2841 10.1753 19.7886 10.1569Z" fill="#222222"/>
</svg>
