<svg width="24" height="24" viewBox="0 0 24 24" fill="none" xmlns="http://www.w3.org/2000/svg">
<path id="Icon verified" d="M8.29091 23.4545L6.21818 19.9636L2.29091 19.0909L2.67273 15.0545L0 12L2.67273 8.94541L2.29091 4.90905L6.21818 4.03632L8.29091 0.54541L12 2.12723L15.7091 0.54541L17.7818 4.03632L21.7091 4.90905L21.3273 8.94541L24 12L21.3273 15.0545L21.7091 19.0909L17.7818 19.9636L15.7091 23.4545L12 21.8727L8.29091 23.4545ZM9.21818 20.6727L12 19.4727L14.8364 20.6727L16.3636 18.0545L19.3636 17.3454L19.0909 14.2909L21.1091 12L19.0909 9.6545L19.3636 6.59996L16.3636 5.94541L14.7818 3.32723L12 4.52723L9.16364 3.32723L7.63636 5.94541L4.63636 6.59996L4.90909 9.6545L2.89091 12L4.90909 14.2909L4.63636 17.4L7.63636 18.0545L9.21818 20.6727ZM10.8545 15.8727L17.0182 9.70905L15.4909 8.12723L10.8545 12.7636L8.50909 10.4727L6.98182 12L10.8545 15.8727Z" fill="#0F9EEA"/>
</svg>
