<svg width="26" height="24" viewBox="0 0 26 24" fill="none" xmlns="http://www.w3.org/2000/svg">
<path d="M18.9881 2.25181C19.6641 2.25124 20.3333 2.38561 20.9567 2.64706C21.58 2.90851 22.1449 3.29177 22.6181 3.77437C23.5933 4.76439 24.14 6.09828 24.14 7.48794C24.14 8.8776 23.5933 10.2115 22.6181 11.2015L13 20.9403L3.38186 11.2015C2.40666 10.2115 1.86003 8.8776 1.86003 7.48794C1.86003 6.09828 2.40666 4.76439 3.38186 3.77437C3.85542 3.29212 4.42034 2.90906 5.0436 2.64757C5.66686 2.38608 6.33598 2.25141 7.01187 2.25141C7.68776 2.25141 8.35688 2.38608 8.98014 2.64757C9.60341 2.90906 10.1683 3.29212 10.6419 3.77437L13 6.18819L15.3488 3.79294C15.8207 3.30459 16.3862 2.91641 17.0115 2.65161C17.6368 2.38681 18.3091 2.25083 18.9881 2.25181ZM18.9881 0.395022C18.065 0.39424 17.1509 0.577781 16.2996 0.934884C15.4483 1.29199 14.6769 1.81546 14.0305 2.47462L13 3.51442L11.9695 2.47462C11.3223 1.81665 10.5507 1.29409 9.69956 0.93738C8.8484 0.580674 7.93475 0.396967 7.01187 0.396967C6.08899 0.396967 5.17534 0.580674 4.32419 0.93738C3.47303 1.29409 2.70139 1.81665 2.05426 2.47462C0.737685 3.81487 0 5.61849 0 7.49722C0 9.37595 0.737685 11.1796 2.05426 12.5198L13 23.6048L23.9457 12.5198C25.2623 11.1796 26 9.37595 26 7.49722C26 5.61849 25.2623 3.81487 23.9457 2.47462C23.2988 1.8163 22.5272 1.29337 21.676 0.936331C20.8249 0.579289 19.9111 0.395276 18.9881 0.395022Z" fill="#222222"/>
</svg>
