<svg width="21" height="21" viewBox="0 0 21 21" fill="none" xmlns="http://www.w3.org/2000/svg">
<path d="M6.3 0.428467H14.7C17.9 0.428467 20.5 3.02847 20.5 6.22847V14.6285C20.5 16.1667 19.8889 17.642 18.8012 18.7297C17.7135 19.8174 16.2383 20.4285 14.7 20.4285H6.3C3.1 20.4285 0.5 17.8285 0.5 14.6285V6.22847C0.5 4.69021 1.11107 3.21496 2.19878 2.12725C3.28649 1.03954 4.76174 0.428467 6.3 0.428467ZM6.1 2.42847C5.14522 2.42847 4.22955 2.80775 3.55442 3.48288C2.87928 4.15801 2.5 5.07369 2.5 6.02847V14.8285C2.5 16.8185 4.11 18.4285 6.1 18.4285H14.9C15.8548 18.4285 16.7705 18.0492 17.4456 17.3741C18.1207 16.6989 18.5 15.7832 18.5 14.8285V6.02847C18.5 4.03847 16.89 2.42847 14.9 2.42847H6.1ZM15.75 3.92847C16.0815 3.92847 16.3995 4.06016 16.6339 4.29458C16.8683 4.529 17 4.84695 17 5.17847C17 5.50999 16.8683 5.82793 16.6339 6.06235C16.3995 6.29677 16.0815 6.42847 15.75 6.42847C15.4185 6.42847 15.1005 6.29677 14.8661 6.06235C14.6317 5.82793 14.5 5.50999 14.5 5.17847C14.5 4.84695 14.6317 4.529 14.8661 4.29458C15.1005 4.06016 15.4185 3.92847 15.75 3.92847ZM10.5 5.42847C11.8261 5.42847 13.0979 5.95525 14.0355 6.89293C14.9732 7.83062 15.5 9.10238 15.5 10.4285C15.5 11.7545 14.9732 13.0263 14.0355 13.964C13.0979 14.9017 11.8261 15.4285 10.5 15.4285C9.17392 15.4285 7.90215 14.9017 6.96447 13.964C6.02678 13.0263 5.5 11.7545 5.5 10.4285C5.5 9.10238 6.02678 7.83062 6.96447 6.89293C7.90215 5.95525 9.17392 5.42847 10.5 5.42847ZM10.5 7.42847C9.70435 7.42847 8.94129 7.74454 8.37868 8.30715C7.81607 8.86975 7.5 9.63282 7.5 10.4285C7.5 11.2241 7.81607 11.9872 8.37868 12.5498C8.94129 13.1124 9.70435 13.4285 10.5 13.4285C11.2956 13.4285 12.0587 13.1124 12.6213 12.5498C13.1839 11.9872 13.5 11.2241 13.5 10.4285C13.5 9.63282 13.1839 8.86975 12.6213 8.30715C12.0587 7.74454 11.2956 7.42847 10.5 7.42847Z" fill="#222222"/>
</svg>
