<svg width="19" height="19" viewBox="0 0 19 19" fill="none" xmlns="http://www.w3.org/2000/svg">
<path d="M16.5 0.428467C17.0304 0.428467 17.5391 0.63918 17.9142 1.01425C18.2893 1.38933 18.5 1.89803 18.5 2.42847V16.4285C18.5 16.9589 18.2893 17.4676 17.9142 17.8427C17.5391 18.2178 17.0304 18.4285 16.5 18.4285H2.5C1.96957 18.4285 1.46086 18.2178 1.08579 17.8427C0.710714 17.4676 0.5 16.9589 0.5 16.4285V2.42847C0.5 1.89803 0.710714 1.38933 1.08579 1.01425C1.46086 0.63918 1.96957 0.428467 2.5 0.428467H16.5ZM16 15.9285V10.6285C16 9.76386 15.6565 8.93467 15.0452 8.3233C14.4338 7.71193 13.6046 7.36847 12.74 7.36847C11.89 7.36847 10.9 7.88847 10.42 8.66847V7.55847H7.63V15.9285H10.42V10.9985C10.42 10.2285 11.04 9.59847 11.81 9.59847C12.1813 9.59847 12.5374 9.74597 12.7999 10.0085C13.0625 10.2711 13.21 10.6272 13.21 10.9985V15.9285H16ZM4.38 5.98847C4.82556 5.98847 5.25288 5.81147 5.56794 5.49641C5.883 5.18135 6.06 4.75403 6.06 4.30847C6.06 3.37847 5.31 2.61847 4.38 2.61847C3.93178 2.61847 3.50193 2.79652 3.18499 3.11346C2.86805 3.43039 2.69 3.86025 2.69 4.30847C2.69 5.23847 3.45 5.98847 4.38 5.98847ZM5.77 15.9285V7.55847H3V15.9285H5.77Z" fill="#222222"/>
</svg>
