<svg width="160" height="160" viewBox="0 0 160 160" fill="none" xmlns="http://www.w3.org/2000/svg">
<g clip-path="url(#clip0_540_3789)">
<g opacity="0.3">
<path d="M128.748 90.7784L124.379 95.1478L128.748 99.5171L133.118 95.1478L128.748 90.7784Z" stroke="black" stroke-linecap="round" stroke-linejoin="round"/>
<path d="M34.5064 13.5509L30.137 17.9202L34.5064 22.2896L38.8757 17.9202L34.5064 13.5509Z" stroke="black" stroke-linecap="round" stroke-linejoin="round"/>
<path d="M26.5672 104.666L23.8655 107.368L26.5672 110.07L29.2689 107.368L26.5672 104.666Z" stroke="black" stroke-linecap="round" stroke-linejoin="round"/>
<path d="M11.2974 60.816L8.59573 63.5177L11.2974 66.2194L13.9992 63.5177L11.2974 60.816Z" stroke="black" stroke-linecap="round" stroke-linejoin="round"/>
<path d="M121.761 29.5428L119.059 32.2445L121.761 34.9462L124.462 32.2445L121.761 29.5428Z" stroke="black" stroke-linecap="round" stroke-linejoin="round"/>
<path d="M32.6256 107.67L28.7835 111.512L32.6256 115.354L36.4677 111.512L32.6256 107.67Z" stroke="black" stroke-linecap="round" stroke-linejoin="round"/>
<path d="M109.249 103.574L106.547 106.276L109.249 108.977L111.951 106.276L109.249 103.574Z" stroke="black" stroke-linecap="round" stroke-linejoin="round"/>
<path d="M129.975 24.0245L124.805 29.1948L129.975 34.3652L135.145 29.1948L129.975 24.0245Z" stroke="black" stroke-linecap="round" stroke-linejoin="round"/>
<path d="M74.561 146.113L71.8593 148.815L74.561 151.517L77.2627 148.815L74.561 146.113Z" stroke="black" stroke-linecap="round" stroke-linejoin="round"/>
<path d="M20.7616 64.608C22.9301 64.608 24.688 62.8501 24.688 60.6816C24.688 58.5131 22.9301 56.7552 20.7616 56.7552C18.5931 56.7552 16.8352 58.5131 16.8352 60.6816C16.8352 62.8501 18.5931 64.608 20.7616 64.608Z" stroke="black" stroke-linecap="round" stroke-linejoin="round"/>
<path d="M134.64 76.6048C136.688 76.6048 138.349 74.9443 138.349 72.896C138.349 70.8477 136.688 69.1872 134.64 69.1872C132.592 69.1872 130.931 70.8477 130.931 72.896C130.931 74.9443 132.592 76.6048 134.64 76.6048Z" stroke="black" stroke-linecap="round" stroke-linejoin="round"/>
<path d="M147.946 49.5552C149.151 49.5552 150.128 48.5781 150.128 47.3728C150.128 46.1675 149.151 45.1904 147.946 45.1904C146.74 45.1904 145.763 46.1675 145.763 47.3728C145.763 48.5781 146.74 49.5552 147.946 49.5552Z" stroke="black" stroke-linecap="round" stroke-linejoin="round"/>
<path d="M104.32 18.7936C104.321 18.5338 104.244 18.2797 104.1 18.0635C103.956 17.8472 103.751 17.6786 103.512 17.5789C103.272 17.4792 103.008 17.4529 102.753 17.5034C102.498 17.554 102.264 17.679 102.08 17.8627C101.897 18.0463 101.772 18.2804 101.721 18.5352C101.671 18.79 101.697 19.0541 101.796 19.294C101.896 19.5338 102.065 19.7387 102.281 19.8826C102.497 20.0265 102.751 20.103 103.011 20.1024C103.358 20.1024 103.691 19.9645 103.937 19.7191C104.182 19.4736 104.32 19.1407 104.32 18.7936Z" stroke="black" stroke-linecap="round" stroke-linejoin="round"/>
<path d="M49.3408 94.7136C50.0636 94.7136 50.6496 94.1276 50.6496 93.4048C50.6496 92.682 50.0636 92.096 49.3408 92.096C48.618 92.096 48.032 92.682 48.032 93.4048C48.032 94.1276 48.618 94.7136 49.3408 94.7136Z" stroke="black" stroke-linecap="round" stroke-linejoin="round"/>
<path d="M18.3616 130.493C19.4467 130.493 20.3264 129.613 20.3264 128.528C20.3264 127.443 19.4467 126.563 18.3616 126.563C17.2765 126.563 16.3968 127.443 16.3968 128.528C16.3968 129.613 17.2765 130.493 18.3616 130.493Z" stroke="black" stroke-linecap="round" stroke-linejoin="round"/>
<path d="M137.258 125.254C137.258 124.909 137.155 124.571 136.963 124.283C136.771 123.996 136.498 123.772 136.178 123.64C135.859 123.508 135.507 123.473 135.168 123.541C134.829 123.609 134.518 123.775 134.274 124.02C134.03 124.265 133.863 124.576 133.796 124.916C133.729 125.255 133.764 125.606 133.897 125.925C134.03 126.244 134.254 126.517 134.542 126.709C134.83 126.9 135.168 127.002 135.514 127.002C135.743 127.002 135.97 126.956 136.182 126.869C136.394 126.781 136.586 126.652 136.748 126.49C136.91 126.327 137.038 126.135 137.126 125.923C137.213 125.711 137.258 125.484 137.258 125.254Z" stroke="black" stroke-linecap="round" stroke-linejoin="round"/>
<path d="M123.296 12.48C123.297 12.1343 123.195 11.7962 123.003 11.5085C122.811 11.2207 122.539 10.9963 122.22 10.8635C121.9 10.7308 121.549 10.6957 121.21 10.7628C120.871 10.8299 120.559 10.996 120.314 11.2402C120.07 11.4844 119.903 11.7958 119.835 12.1348C119.768 12.4738 119.802 12.8253 119.934 13.1447C120.066 13.4641 120.29 13.7372 120.578 13.9293C120.865 14.1215 121.203 14.224 121.549 14.224C121.778 14.2244 122.005 14.1796 122.217 14.0922C122.429 14.0047 122.622 13.8763 122.784 13.7143C122.946 13.5524 123.075 13.36 123.163 13.1482C123.251 12.9364 123.296 12.7093 123.296 12.48Z" stroke="black" stroke-linecap="round" stroke-linejoin="round"/>
</g>
<path d="M53.4848 79.4432L41.0496 86.2048" stroke="#263238" stroke-width="3" stroke-linecap="round" stroke-linejoin="round"/>
<path d="M29.9232 42.5728L43.232 47.808" stroke="#263238" stroke-width="3" stroke-linecap="round" stroke-linejoin="round"/>
<path d="M45.8496 12.9024L54.3584 26.6464" stroke="#263238" stroke-width="3" stroke-linecap="round" stroke-linejoin="round"/>
<path d="M74.864 6.79358L74.4288 17.7024" stroke="#263238" stroke-width="3" stroke-linecap="round" stroke-linejoin="round"/>
<path d="M99.7344 32.7552L110.861 21.6288" stroke="#263238" stroke-width="3" stroke-linecap="round" stroke-linejoin="round"/>
<path d="M115.222 55.2256L124.822 51.9552" stroke="#263238" stroke-width="3" stroke-linecap="round" stroke-linejoin="round"/>
<path d="M106.061 79.6608L114.131 84.24" stroke="#263238" stroke-width="3" stroke-linecap="round" stroke-linejoin="round"/>
<path d="M43.0144 32.5376L49.5584 37.5552" stroke="#263238" stroke-width="3" stroke-linecap="round" stroke-linejoin="round"/>
<path d="M113.478 41.92L106.496 45.1904" stroke="#263238" stroke-width="3" stroke-linecap="round" stroke-linejoin="round"/>
<path d="M45.4112 65.6992L37.9936 67.8784" stroke="#263238" stroke-width="3" stroke-linecap="round" stroke-linejoin="round"/>
<path d="M109.114 68.5344L112.605 69.408" stroke="#263238" stroke-width="3" stroke-linecap="round" stroke-linejoin="round"/>
<path d="M112.102 55.5456C110.867 54.6912 106.221 55.4496 103.28 57.8208C100.339 60.192 99.6768 61.0464 99.6768 61.0464C99.6768 61.0464 98.3488 51.7504 98.3488 51.4656C98.3488 51.1808 96.4512 33.728 96.0704 31.168C95.6896 28.608 95.1104 24.8128 94.5536 23.9584C93.9968 23.104 91.7088 22.9984 90.9504 23.392L90.192 23.7696C90.192 23.7696 90.5696 17.1296 89.8112 15.5168C89.0528 13.904 86.6816 14.8544 86.016 15.7088C85.543 16.382 85.161 17.1148 84.88 17.888C84.88 17.888 82.6976 17.1296 81.4656 19.5968C80.2336 22.064 79.2832 24.2432 79.0944 26.6144C78.9056 28.9856 77.8592 32.0224 77.8592 32.0224C77.8592 32.0224 76.6272 30.0288 75.2992 31.168C73.9712 32.3072 72.4544 36.7648 72.0736 39.9904C71.6928 43.216 71.3152 51.7504 71.3152 51.7504C71.3152 51.7504 70.5568 55.6384 70.176 58.7712C69.7952 61.904 70.0832 74.896 71.504 80.3008C72.9248 85.7056 74.8256 89.1232 74.8256 89.1232C74.8256 89.1232 78.144 100.029 78.6176 101.549C79.0912 103.069 84.3104 123.744 84.3104 123.744L99.8656 104C99.8656 104 95.9776 93.2832 95.1232 90.816C94.2688 88.3488 93.6992 87.5904 93.6992 87.5904C93.6992 87.5904 98.4416 80.8704 101.005 78.864C103.568 76.8576 104.893 70.224 105.555 67.2928C106.218 64.3616 108.97 60.2752 110.49 58.9472C112.01 57.6192 113.334 56.4 112.102 55.5456ZM77.0048 50.992C76.7232 50.992 76.816 47.2928 76.816 42.8352C76.816 38.3776 77.5744 36.384 77.5744 36.384C77.1968 38.3776 77.9552 48.24 77.9552 48.9056C77.9552 49.5712 77.2896 50.992 77.0048 50.992Z" fill="white" stroke="#263238" stroke-linecap="round" stroke-linejoin="round"/>
<path d="M91.3504 89.2256C92.5376 88.624 92.752 87.984 92.752 87.984" stroke="#263238" stroke-linecap="round" stroke-linejoin="round"/>
<path d="M82.032 87.04C82.032 87.04 87.2512 90.4544 89.8112 89.7888" stroke="#263238" stroke-linecap="round" stroke-linejoin="round"/>
<path d="M99.6768 61.0464C99.6768 61.0464 97.6832 64.176 97.2096 65.3152C96.736 66.4544 96.4512 67.4016 95.6096 67.8752C94.768 68.3488 93.6192 69.0144 93.6192 69.0144" stroke="#263238" stroke-linecap="round" stroke-linejoin="round"/>
<path d="M93.9456 61.9744C91.5328 63.0944 88.1376 65.072 86.208 67.9712" stroke="#263238" stroke-linecap="round" stroke-linejoin="round"/>
<path d="M96.736 60.8576C96.736 60.8576 96.0384 61.072 94.9824 61.4976" stroke="#263238" stroke-linecap="round" stroke-linejoin="round"/>
<path d="M85.1648 69.2032C85.1648 69.2032 83.456 72.3328 82.6976 74.8" stroke="#263238" stroke-linecap="round" stroke-linejoin="round"/>
<path d="M84.88 17.888C84.88 17.888 84.4032 21.872 83.7408 27.84C83.0784 33.808 82.6976 36.7552 82.7808 40.5504C82.864 44.3456 83.9296 47.68 83.84 48.1472" stroke="#263238" stroke-linecap="round" stroke-linejoin="round"/>
<path d="M90.192 23.7697C90.0183 25.6633 90.0183 27.5688 90.192 29.4625C90.4736 32.6849 89.9072 38.6625 89.9072 40.9377C89.9072 43.2129 90 46.6305 90.096 47.6577C90.1636 48.3039 90.3912 48.9231 90.7584 49.4593" stroke="#263238" stroke-linecap="round" stroke-linejoin="round"/>
<path d="M91.9936 50.0448C91.9936 50.0448 92.4672 50.896 95.5968 51.0048" stroke="#263238" stroke-linecap="round" stroke-linejoin="round"/>
<path d="M84.8 47.7664C84.8 47.7664 87.0752 48.24 88.5952 47.9584" stroke="#263238" stroke-linecap="round" stroke-linejoin="round"/>
<path d="M76.5312 51.7504C76.5312 51.7504 76.5312 52.7104 73.7824 53.552" stroke="#263238" stroke-linecap="round" stroke-linejoin="round"/>
<path d="M81.9392 49.1904C82.224 49.0016 83.36 48.6208 83.6448 47.2928" stroke="#263238" stroke-linecap="round" stroke-linejoin="round"/>
<path d="M82.1024 63.7184C82.1024 63.7184 88 61.5584 91.7344 60.7712" stroke="#263238" stroke-linecap="round" stroke-linejoin="round"/>
<path d="M98.8448 159.725H149.834C146.272 155.024 133.277 137.894 132.429 137.046C131.446 136.064 127.12 135.475 127.12 135.475L114.342 124.858L98.4192 98.5153L83.28 119.552L80.72 109.312L75.024 130.56C75.024 130.56 95.6672 155.725 96.464 156.707C96.6048 156.896 97.4944 158.026 98.8448 159.725Z" fill="#263238" stroke="#263238" stroke-linecap="round" stroke-linejoin="round"/>
<path d="M58.9184 85.9776C58.9184 85.9776 54.6976 75.168 53.68 73.1776C52.6624 71.1872 47.1392 62.544 46.8608 60.2016C46.5824 57.8592 45.7184 53.9552 44.8288 52.3232C43.9392 50.6912 46.5888 49.6224 48.7776 51.6832C50.9664 53.744 52.2976 57.1232 52.2656 58.0832C52.2336 59.0432 57.1808 62.6752 57.1808 62.6752L58.08 54.3552C58.08 54.3552 59.04 33.6864 58.8384 30.6016C58.6368 27.5168 58.4384 20.9664 60.8864 20.7136C63.3344 20.4608 63.712 22.4 63.712 22.4C63.712 22.4 63.8016 17.5168 66.5216 17.8336C68.6016 18.0736 69.4016 20.0352 69.7024 20.976C70.0032 21.9168 70.3648 23.0944 70.3648 23.0944C70.3648 23.0944 72.08 21.9296 73.7536 24.6944C74.7136 26.2944 76.7552 31.2992 77.0848 32.5728C77.4144 33.8464 77.5168 34.3072 77.5168 34.3072C78.2392 34.3258 78.9398 34.5588 79.5295 34.9764C80.1192 35.394 80.5715 35.9776 80.8288 36.6528C81.8464 39.0752 83.2928 45.3984 84.6912 50.624C85.5471 53.956 85.9973 57.3792 86.032 60.8192C86.032 60.8192 86.5792 77.6416 85.4528 82.992C84.3264 88.3424 82.208 92.912 81.7728 93.3376C81.3376 93.7632 75.0816 112.243 75.0816 112.243L53.3728 104.195C53.3728 104.195 57.8944 93.088 58.608 90.6656C59.0375 89.1417 59.1432 87.5448 58.9184 85.9776Z" fill="white" stroke="#263238" stroke-linecap="round" stroke-linejoin="round"/>
<path d="M54.3744 70.208C54.3892 70.7832 54.4818 71.3537 54.6496 71.904" stroke="#263238" stroke-linecap="round" stroke-linejoin="round"/>
<path d="M56.5152 63.5968C55.6203 64.775 54.9856 66.1296 54.6528 67.5712C54.5346 68.0432 54.4522 68.5235 54.4064 69.008" stroke="#263238" stroke-linecap="round" stroke-linejoin="round"/>
<path d="M63.712 22.4C63.712 22.4 64.0896 29.12 64.352 32.416C64.6144 35.712 64.7264 40.8512 64.7488 44.2176C64.7712 47.584 64.3616 51.8112 64.1312 52.7296C63.931 53.441 63.683 54.1381 63.3888 54.816" stroke="#263238" stroke-linecap="round" stroke-linejoin="round"/>
<path d="M70.3648 23.088C70.0485 23.4844 69.8209 23.9441 69.6973 24.4359C69.5736 24.9277 69.5568 25.4403 69.648 25.9392C70.0032 27.5392 71.6544 36.5184 71.6512 37.8176C71.648 39.1168 71.744 50.4096 71.7696 51.1744C71.7952 51.9392 71.2544 54.512 70.9984 55.5328" stroke="#263238" stroke-linecap="round" stroke-linejoin="round"/>
<path d="M77.5168 34.3073C77.5168 34.3073 76.2944 34.4321 76.5568 36.3457C76.8192 38.2593 77.44 44.4768 77.44 46.208C77.44 47.9392 77.8432 51.9425 77.76 55.7153C77.6768 59.4881 78.5632 60.8001 78.9728 61.7601" stroke="#263238" stroke-linecap="round" stroke-linejoin="round"/>
<path d="M58.6368 59.472C58.6368 59.472 58.2016 61.6384 58.7872 62.7584C59.3728 63.8784 60.1856 66.2528 60.1824 67.5584" stroke="#263238" stroke-linecap="round" stroke-linejoin="round"/>
<path d="M63.0208 58.4032C63.0208 58.4032 62.7904 60.1888 63.0432 61.3344C63.265 62.1584 63.6172 62.9417 64.0864 63.6544" stroke="#263238" stroke-linecap="round" stroke-linejoin="round"/>
<path d="M70.3328 61.2128C70.3328 61.2128 70.0768 63.1008 70.5344 64.2976C70.8097 65.0201 71.1414 65.7199 71.5264 66.3904" stroke="#263238" stroke-linecap="round" stroke-linejoin="round"/>
<path d="M60.48 159.725L80.6624 114.186C80.6624 114.186 72.0576 107.075 66.3936 103.36C60.7296 99.6448 53.9392 99.7408 53.9392 99.7408C53.9392 99.7408 45.072 118.637 44.6048 119.84C44.1376 121.043 37.9552 133.846 37.9552 133.846C37.9552 133.846 35.2384 134.806 34.032 136.986C33.088 138.688 26.2784 153.44 23.376 159.741L60.48 159.725Z" fill="#87CFF5" stroke="#263238" stroke-linecap="round" stroke-linejoin="round"/>
<path d="M74.7697 117.17C75.6641 116.641 75.9604 115.487 75.4314 114.593C74.9024 113.699 73.7485 113.402 72.854 113.931C71.9596 114.46 71.6633 115.614 72.1923 116.509C72.7213 117.403 73.8752 117.699 74.7697 117.17Z" fill="#263238" stroke="#263238" stroke-linecap="round" stroke-linejoin="round"/>
<path d="M72.7936 123.046C72.7032 123.408 72.5078 123.734 72.232 123.984C71.9562 124.234 71.6125 124.396 71.2442 124.451C70.876 124.505 70.4999 124.45 70.1634 124.29C69.827 124.131 69.5453 123.876 69.354 123.556C69.1628 123.237 69.0706 122.868 69.089 122.496C69.1075 122.125 69.2358 121.767 69.4577 121.468C69.6797 121.169 69.9852 120.943 70.3358 120.817C70.6864 120.692 71.0662 120.674 71.4272 120.765C71.6669 120.825 71.8924 120.931 72.0908 121.078C72.2893 121.225 72.4568 121.41 72.5837 121.622C72.7106 121.834 72.7945 122.069 72.8305 122.313C72.8665 122.558 72.854 122.807 72.7936 123.046Z" fill="#263238" stroke="#263238" stroke-linecap="round" stroke-linejoin="round"/>
</g>
<defs>
<clipPath id="clip0_540_3789">
<rect width="160" height="160" fill="white"/>
</clipPath>
</defs>
</svg>
