<svg width="162" height="162" viewBox="0 0 162 162" fill="none" xmlns="http://www.w3.org/2000/svg">
<path d="M156.819 3.15973C156.819 3.15973 155.015 3.85192 154.64 4.83814C154.266 5.82436 155.226 7.19037 155.226 7.19037" stroke="#263238" stroke-linecap="round" stroke-linejoin="round"/>
<path d="M151.262 4.66668L154.078 2.1123" stroke="#263238" stroke-linecap="round" stroke-linejoin="round"/>
<path d="M104.848 50.1186C104.678 49.9226 104.356 49.9655 104.134 49.9716C103.607 49.9716 99.5425 50.7128 99.5191 50.1676C101.147 49.6224 101.861 49.5551 102.828 49.2304C103.261 49.0773 105.293 48.7955 104.145 48.0053C103.56 47.6071 100.204 48.1033 99.361 48.1155H96.3335L98.0083 44.8751C98.0452 44.7523 98.0441 44.6205 98.0053 44.4983C97.9665 44.3761 97.8919 44.2699 97.792 44.1946C97.6922 44.1193 97.5722 44.0789 97.4492 44.079C97.3261 44.0791 97.2062 44.1197 97.1065 44.1952L91.3092 51.4601C91.3092 51.4601 76.1483 51.699 72.0258 52.2013C69.4101 52.4983 66.7744 52.5516 64.1497 52.3606L56.4433 39.9685L52.7307 51.7051C52.7307 51.7051 60.8001 60.3483 62.9668 60.7588C68.606 61.8307 73.7182 60.6669 79.0997 58.9762C80.0894 58.6638 91.6371 55.3376 91.5903 54.7373V54.8231L95.461 54.7373C95.461 54.7373 97.2939 54.9211 97.452 54.9211C98.5763 54.9211 99.7944 54.6454 100.913 54.578C101.247 54.578 104.028 54.2105 103.027 53.6041C102.609 53.4945 102.175 53.4737 101.75 53.5428C100.925 53.5428 100.444 53.4693 99.6128 53.4877C100.62 53.2917 101.288 53.3223 102.295 53.1263C102.985 53.0384 103.666 52.8908 104.333 52.6852C104.918 52.4402 104.877 51.8522 104.303 51.7725C103.885 51.7827 103.469 51.8236 103.056 51.895C102.078 51.9318 100.643 52.2626 99.6655 52.3054C100.837 51.9502 102.008 51.6439 103.179 51.2886C103.571 51.1661 105.516 50.8966 104.848 50.1186Z" stroke="#263238" stroke-linecap="round" stroke-linejoin="round"/>
<path d="M96.3277 48.1154C96.3277 48.1154 96.5912 50.4676 96.5912 51.2885C96.5912 52.1093 93.4408 52.3176 93.4408 52.3176" stroke="#263238" stroke-linecap="round" stroke-linejoin="round"/>
<path d="M64.1438 52.3606L56.4375 39.9685L52.7307 51.7051C52.7307 51.7051 60.8001 60.3483 62.9668 60.7588C68.606 61.8307 73.7182 60.6669 79.0997 58.9762C79.7614 58.7679 85.1898 57.1998 88.6682 56.0053L91.479 54.8721C91.5493 54.8169 91.5903 54.7741 91.5903 54.7373L91.3326 51.4601C91.3326 51.4601 76.1718 51.699 72.0492 52.2013C69.4239 52.5002 66.7782 52.5535 64.1438 52.3606Z" fill="white"/>
<mask id="mask0_540_3907" style="mask-type:luminance" maskUnits="userSpaceOnUse" x="52" y="39" width="40" height="23">
<path d="M64.1438 52.3606L56.4375 39.9685L52.7307 51.7051C52.7307 51.7051 60.8001 60.3483 62.9668 60.7588C68.606 61.8307 73.7182 60.6669 79.0997 58.9762C79.7614 58.7679 85.1898 57.1998 88.6682 56.0053L91.479 54.8721C91.5493 54.8169 91.5903 54.7741 91.5903 54.7373L91.3326 51.4601C91.3326 51.4601 76.1718 51.699 72.0492 52.2013C69.4239 52.5002 66.7782 52.5535 64.1438 52.3606Z" fill="white"/>
</mask>
<g mask="url(#mask0_540_3907)">
<path d="M57.4154 48.4892C57.4154 48.4892 63.8569 53.1875 62.6857 54.0022C61.5145 54.8169 60.3434 54.4126 61.5145 54.8169C62.6857 55.2212 73.6186 55.4295 73.6186 55.4295L71.8619 60.33C71.8619 60.33 63.6637 60.33 62.2934 59.3131C60.9231 58.2963 56.6366 51.7541 56.6366 51.7541L57.4154 48.4892Z" fill="#0F9EEA"/>
<path opacity="0.5" d="M57.4154 48.4892C57.4154 48.4892 63.8569 53.1875 62.6857 54.0022C61.5145 54.8169 60.3434 54.4126 61.5145 54.8169C62.6857 55.2212 73.6186 55.4295 73.6186 55.4295L71.8619 60.33C71.8619 60.33 63.6637 60.33 62.2934 59.3131C60.9231 58.2963 56.6366 51.7541 56.6366 51.7541L57.4154 48.4892Z" fill="white"/>
</g>
<path d="M64.1438 52.3606L56.4375 39.9685L52.7307 51.7051C52.7307 51.7051 60.8001 60.3483 62.9668 60.7588C68.606 61.8307 73.7182 60.6669 79.0997 58.9762C79.7614 58.7679 85.1898 57.1998 88.6682 56.0053L91.479 54.8721C91.5493 54.8169 91.5903 54.7741 91.5903 54.7373L91.3326 51.4601C91.3326 51.4601 76.1718 51.699 72.0492 52.2013C69.4239 52.5002 66.7782 52.5535 64.1438 52.3606Z" stroke="#263238" stroke-linecap="round" stroke-linejoin="round"/>
<path d="M156.145 1.71405H76.9389C74.2578 1.71405 72.0844 3.98759 72.0844 6.79216V105.451C72.0844 108.255 74.2578 110.529 76.9389 110.529H156.145C158.826 110.529 161 108.255 161 105.451V6.79216C161 3.98759 158.826 1.71405 156.145 1.71405Z" fill="white" stroke="#263238" stroke-linecap="round" stroke-linejoin="round"/>
<path d="M161 105.604V6.63907C161.002 5.62872 160.705 4.64241 160.151 3.81519L73.4195 109.041C73.8574 109.513 74.3818 109.888 74.9613 110.144C75.5408 110.399 76.1636 110.531 76.7925 110.529H156.298C156.916 110.531 157.529 110.406 158.101 110.159C158.673 109.912 159.193 109.55 159.63 109.092C160.067 108.634 160.413 108.09 160.648 107.491C160.884 106.893 161.003 106.251 161 105.604Z" fill="#263238" stroke="#263238" stroke-linecap="round" stroke-linejoin="round"/>
<path d="M91.561 21.3283L95.6836 24.7096" stroke="#263238" stroke-linecap="round" stroke-linejoin="round"/>
<path d="M99.812 17.7633L101.247 20.0175" stroke="#263238" stroke-linecap="round" stroke-linejoin="round"/>
<path d="M107.167 12.3237L108.426 16.4524" stroke="#263238" stroke-linecap="round" stroke-linejoin="round"/>
<path d="M137.904 21.3283L133.776 24.7096" stroke="#263238" stroke-linecap="round" stroke-linejoin="round"/>
<path d="M129.648 17.7633L128.213 20.0175" stroke="#263238" stroke-linecap="round" stroke-linejoin="round"/>
<path d="M122.293 12.3237L121.039 16.4524" stroke="#263238" stroke-linecap="round" stroke-linejoin="round"/>
<path d="M115.512 18.4737H115.271C102.125 18.7248 92.2169 29.2425 92.2169 42.1859C92.2119 46.0523 93.1126 49.8612 94.8404 53.2793C95.5841 55.0802 97.3174 59.4906 99.0624 65.1935C100.213 68.8916 101.033 72.6936 101.51 76.5504C101.51 76.63 101.51 76.7097 101.51 76.7954C101.502 77.0333 101.54 77.2704 101.622 77.4926C101.703 77.7149 101.827 77.9177 101.984 78.0891C102.142 78.2605 102.331 78.397 102.541 78.4905C102.75 78.5839 102.975 78.6324 103.203 78.6331H126.749C126.977 78.6333 127.202 78.5853 127.412 78.4922C127.621 78.399 127.811 78.2626 127.969 78.091C128.127 77.9194 128.25 77.7162 128.331 77.4936C128.413 77.271 128.45 77.0335 128.441 76.7954V76.5504C128.916 72.693 129.735 68.8907 130.889 65.1935C132.646 59.4906 134.367 55.0802 135.105 53.2793C136.912 49.6995 137.814 45.6957 137.724 41.6486C137.634 37.6016 136.556 33.6458 134.592 30.1576C132.629 26.6693 129.845 23.7645 126.505 21.7195C123.165 19.6744 119.381 18.5571 115.512 18.4737Z" fill="#ADE3FF" stroke="#263238" stroke-linecap="round" stroke-linejoin="round"/>
<path opacity="0.43" d="M122.304 42.1001C127.165 42.1001 131.106 38.1097 131.106 33.1873C131.106 28.265 127.165 24.2746 122.304 24.2746C117.444 24.2746 113.503 28.265 113.503 33.1873C113.503 38.1097 117.444 42.1001 122.304 42.1001Z" fill="white"/>
<path d="M118.375 34.8596C120.749 34.8596 122.673 32.9124 122.673 30.5104C122.673 28.1084 120.749 26.1613 118.375 26.1613C116.001 26.1613 114.077 28.1084 114.077 30.5104C114.077 32.9124 116.001 34.8596 118.375 34.8596Z" fill="white"/>
<path d="M106.985 22.2899C107.642 21.9834 108.315 21.7155 109 21.4874" stroke="white" stroke-width="2" stroke-linecap="round" stroke-linejoin="round"/>
<path d="M99.4313 28.3114C100.952 26.0967 102.985 24.322 105.34 23.1537" stroke="white" stroke-width="2" stroke-linecap="round" stroke-linejoin="round"/>
<path d="M99.9174 62.4616C100.761 65.3345 101.873 69.3223 102.26 71.5459C102.91 75.3009 102.476 77.2304 103.888 77.5734" stroke="white" stroke-width="2" stroke-linecap="round" stroke-linejoin="round"/>
<path d="M98.8867 59.0312C98.8867 59.0312 99.1268 59.8031 99.4723 60.9853" stroke="white" stroke-width="2" stroke-linecap="round" stroke-linejoin="round"/>
<path d="M113.474 78.4066V55.7419C113.474 55.7419 114.37 49.8123 111.418 49.8123C108.467 49.8123 108.695 52.8751 112.098 56.2197C115.5 59.5642 120.717 56.4586 121.403 53.843C122.088 51.2273 120.267 50.0512 119.13 52.1829C117.994 54.3146 119.13 78.5229 119.13 78.5229" stroke="white" stroke-width="2" stroke-linecap="round" stroke-linejoin="round"/>
<path d="M127.212 78.4983H102.734V84.4401H127.212V78.4983Z" fill="white" stroke="#263238" stroke-linecap="round" stroke-linejoin="round"/>
<path d="M127.212 85.8551H102.734V91.7969H127.212V85.8551Z" fill="white" stroke="#263238" stroke-linecap="round" stroke-linejoin="round"/>
<path d="M127.212 84.4401H102.734V85.8551H127.212V84.4401Z" fill="#263238" stroke="#263238" stroke-linecap="round" stroke-linejoin="round"/>
<path d="M121.531 99.1537H108.414C106.908 99.1537 105.463 98.5277 104.398 97.4134C103.332 96.2991 102.734 94.7878 102.734 93.2119H127.212C127.212 94.7878 126.613 96.2991 125.548 97.4134C124.483 98.5277 123.038 99.1537 121.531 99.1537Z" fill="white" stroke="#263238" stroke-linecap="round" stroke-linejoin="round"/>
<path d="M127.212 91.7971H102.734V93.2121H127.212V91.7971Z" fill="#263238" stroke="#263238" stroke-linecap="round" stroke-linejoin="round"/>
<path d="M67.9209 13.2178L69.5547 21.0953L67.2123 21.8978C67.2123 21.8978 66.3339 31.1474 65.7132 31.8212C65.0925 32.495 59.0024 30.1551 59.0024 30.1551L56.2091 35.0556L51.0911 32.4951L52.9708 28.0724C52.9708 28.0724 49.1235 13.2485 49.1704 9.78137C49.2172 6.31429 50.9916 5.10755 55.3659 4.10908C58.0513 3.51401 60.826 3.51401 63.5114 4.10908C63.5114 4.10908 61.7137 1.58533 66.4393 1.04628C71.165 0.507231 73.7299 5.50571 73.2849 8.26835C72.8398 11.031 67.9209 13.2178 67.9209 13.2178Z" fill="white"/>
<mask id="mask1_540_3907" style="mask-type:luminance" maskUnits="userSpaceOnUse" x="49" y="1" width="25" height="35">
<path d="M67.9209 13.2178L69.5547 21.0953L67.2123 21.8978C67.2123 21.8978 66.3339 31.1474 65.7132 31.8212C65.0925 32.495 59.0024 30.1551 59.0024 30.1551L56.2091 35.0556L51.0911 32.4951L52.9708 28.0724C52.9708 28.0724 49.1235 13.2485 49.1704 9.78137C49.2172 6.31429 50.9916 5.10755 55.3659 4.10908C58.0513 3.51401 60.826 3.51401 63.5114 4.10908C63.5114 4.10908 61.7137 1.58533 66.4393 1.04628C71.165 0.507231 73.7299 5.50571 73.2849 8.26835C72.8398 11.031 67.9209 13.2178 67.9209 13.2178Z" fill="white"/>
</mask>
<g mask="url(#mask1_540_3907)">
<path d="M52.9415 28.0664C52.9415 28.0664 49.0942 13.2425 49.141 9.77543C49.1879 6.30835 50.9622 5.1016 55.3365 4.10313C58.0219 3.50806 60.7967 3.50806 63.4821 4.10313C63.2978 3.84557 63.1896 3.53722 63.1709 3.21611C63.1521 2.89499 63.2237 2.57517 63.3766 2.29608C64.4933 2.307 65.6073 2.4094 66.7086 2.60236C68.3014 2.90864 70.2222 3.21492 71.8208 3.4967C72.7633 4.70918 73.2818 6.22191 73.2906 7.78461L72.055 10.3819C70.8309 11.5584 69.4302 12.5165 67.9091 13.218L68.2253 14.7371C67.3316 15.0848 66.4133 15.3592 65.4789 15.558C63.851 15.8275 61.2041 14.8658 61.2041 14.8658C61.2041 14.8658 63.0253 17.0098 61.4442 18.6698C60.5742 19.6243 59.457 20.2928 58.2293 20.5932C58.2293 20.5932 57.7082 24.8811 57.9131 26.2288C58.0712 27.2946 63.3357 30.5167 65.6312 31.8459C64.8582 32.4217 58.9613 30.1553 58.9613 30.1553L56.1681 35.0557L51.05 32.4952L52.9415 28.0664Z" fill="#0F9EEA"/>
<path opacity="0.5" d="M52.9415 28.0664C52.9415 28.0664 49.0942 13.2425 49.141 9.77543C49.1879 6.30835 50.9622 5.1016 55.3365 4.10313C58.0219 3.50806 60.7967 3.50806 63.4821 4.10313C63.2978 3.84557 63.1896 3.53722 63.1709 3.21611C63.1521 2.89499 63.2237 2.57517 63.3766 2.29608C64.4933 2.307 65.6073 2.4094 66.7086 2.60236C68.3014 2.90864 70.2222 3.21492 71.8208 3.4967C72.7633 4.70918 73.2818 6.22191 73.2906 7.78461L72.055 10.3819C70.8309 11.5584 69.4302 12.5165 67.9091 13.218L68.2253 14.7371C67.3316 15.0848 66.4133 15.3592 65.4789 15.558C63.851 15.8275 61.2041 14.8658 61.2041 14.8658C61.2041 14.8658 63.0253 17.0098 61.4442 18.6698C60.5742 19.6243 59.457 20.2928 58.2293 20.5932C58.2293 20.5932 57.7082 24.8811 57.9131 26.2288C58.0712 27.2946 63.3357 30.5167 65.6312 31.8459C64.8582 32.4217 58.9613 30.1553 58.9613 30.1553L56.1681 35.0557L51.05 32.4952L52.9415 28.0664Z" fill="white"/>
</g>
<path d="M67.9209 13.2178L69.5547 21.0953L67.2123 21.8978C67.2123 21.8978 66.3339 31.1474 65.7132 31.8212C65.0925 32.495 59.0024 30.1551 59.0024 30.1551L56.2091 35.0556L51.0911 32.4951L52.9708 28.0724C52.9708 28.0724 49.1235 13.2485 49.1704 9.78137C49.2172 6.31429 50.9916 5.10755 55.3659 4.10908C58.0513 3.51401 60.826 3.51401 63.5114 4.10908C63.5114 4.10908 61.7137 1.58533 66.4393 1.04628C71.165 0.507231 73.7299 5.50571 73.2849 8.26835C72.8398 11.031 67.9209 13.2178 67.9209 13.2178Z" stroke="#263238" stroke-linecap="round" stroke-linejoin="round"/>
<path d="M49.1411 9.7754C49.1821 6.30219 50.9623 5.10157 55.3366 4.1031C58.022 3.50802 60.7968 3.50802 63.4821 4.1031C63.4821 4.1031 61.6844 1.57935 66.4101 1.0403C71.1358 0.501249 73.7006 5.49973 73.2556 8.26237C72.8105 11.025 67.9267 13.2057 67.9267 13.2057C67.9267 13.2057 61.7488 14.0756 58.3524 12.4523C58.3524 12.4523 60.9348 15.0618 60.8177 16.9485C60.81 17.1992 60.7532 17.4456 60.651 17.6726C60.5488 17.8995 60.4032 18.1022 60.2232 18.268C60.0433 18.4339 59.8328 18.5594 59.6047 18.6369C59.3766 18.7145 59.1358 18.7423 58.897 18.7188L58.692 21.4263C58.692 21.4263 57.3979 22.5227 56.9938 21.8122C56.5898 21.1016 56.0979 17.4936 54.4173 19.2088C52.7366 20.924 53.0236 23.4967 54.1537 24.0541C55.2839 24.6116 55.9105 23.9255 55.4947 25.6162C55.079 27.3068 52.9474 28.0664 52.9474 28.0664C52.9474 28.0664 49.0943 13.2425 49.1411 9.7754Z" fill="#263238" stroke="#263238" stroke-linecap="round" stroke-linejoin="round"/>
<path d="M52.069 10.8657C51.5388 10.7492 51.0001 10.6795 50.4587 10.6575" stroke="white" stroke-width="0.75" stroke-linecap="round" stroke-linejoin="round"/>
<path d="M62.756 6.73099C62.756 6.73099 64.5713 4.11536 66.1875 6.79837C67.8037 9.48138 65.6898 11.5151 60.2614 11.5702C58.3357 11.5835 56.4111 11.469 54.4992 11.2272" stroke="white" stroke-width="0.75" stroke-linecap="round" stroke-linejoin="round"/>
<path d="M57.5091 14.5472C55.0482 14.9688 52.5431 15.0285 50.0663 14.7249" stroke="white" stroke-width="0.75" stroke-linecap="round" stroke-linejoin="round"/>
<path d="M77.87 149.635L78.3561 150.18L81.7642 153.978C81.7642 153.978 86.0917 155.816 86.1502 156.918C86.2088 158.021 81.2957 158.486 78.7835 158.266C76.2714 158.045 73.279 155.614 73.279 155.614C73.279 155.614 70.0934 156.177 69.5957 153.592C69.0979 151.007 71.3524 149.145 71.3524 149.145L77.87 149.635Z" fill="white" stroke="#263238" stroke-linecap="round" stroke-linejoin="round"/>
<path d="M73.279 155.613C73.279 155.613 76.2713 158.064 78.7835 158.266C81.2957 158.468 86.2146 158.039 86.1502 156.918C86.1032 156.675 85.9744 156.458 85.7871 156.306C81.852 157.855 76.6051 156.434 73.9407 154.639C72.5751 153.725 71.0925 153.018 69.5371 152.538C69.5107 152.893 69.5304 153.249 69.5956 153.598C70.0934 156.177 73.279 155.613 73.279 155.613Z" fill="white" stroke="#263238" stroke-linecap="round" stroke-linejoin="round"/>
<path d="M3.30721 148.336C3.30721 148.336 1 158.388 1 159.926C1 161.463 9.61984 161.249 10.2464 159.926C10.873 158.603 9.61984 154.652 8.77659 152.673C7.93335 150.694 7.55272 149.788 7.55272 149.788L3.30721 148.336Z" fill="white" stroke="#263238" stroke-linecap="round" stroke-linejoin="round"/>
<path d="M10.2464 159.907C10.4592 159.222 10.4836 158.487 10.3167 157.788C9.86727 158.334 9.3072 158.769 8.67716 159.06C8.04712 159.351 7.36294 159.492 6.67434 159.473C4.76135 159.494 2.88634 158.914 1.29279 157.806C1.15073 158.499 1.05291 159.201 1 159.907C1 161.451 9.61984 161.231 10.2464 159.907Z" fill="white" stroke="#263238" stroke-linecap="round" stroke-linejoin="round"/>
<path d="M74.9303 105.034C75.0006 102.584 70.1695 98.8537 65.0046 94.8844C59.8398 90.915 49.0298 85.4326 49.0298 85.4326L49.551 82.2595L29.2311 73.5673C29.2311 73.5673 26.3676 77.3591 24.728 86.7006C22.7721 97.8369 24.0428 112.428 24.4059 115.754C23.9257 116.097 19.1356 119.607 17.1505 122.921C15.0599 126.413 3.30719 148.336 3.30719 148.336L7.5527 149.788L7.7518 149.512C7.7518 149.512 34.9992 119.779 36.4163 118.241C37.8334 116.704 40.5154 98.5597 40.5154 98.5597C40.5154 98.5597 60.929 108.52 61.9069 109.206C62.8848 109.892 71.3348 149.145 71.3348 149.145L77.87 149.635C77.87 149.635 74.8542 107.472 74.9303 105.034Z" fill="#263238" stroke="#263238" stroke-linecap="round" stroke-linejoin="round"/>
<path d="M49.2289 92.6116L40.4978 98.5412L47.0271 96.5626" stroke="white" stroke-linecap="round" stroke-linejoin="round"/>
<path d="M47.6654 83.7725C44.2323 83.7274 40.8439 82.9513 37.7068 81.4917C34.5697 80.032 31.7496 77.9193 29.4185 75.2824" stroke="white" stroke-linecap="round" stroke-linejoin="round"/>
<path d="M41.8857 81.065L41.2942 83.4969" stroke="white" stroke-linecap="round" stroke-linejoin="round"/>
<path d="M35.4618 77.9287L34.5482 80.1462" stroke="white" stroke-linecap="round" stroke-linejoin="round"/>
<path d="M57.2925 36.0051C57.2925 36.0051 58.9263 41.0832 58.4636 49.9653C58.001 58.8474 49.551 82.2594 49.551 82.2594L47.6244 82.1553C42.1859 81.8562 36.9642 79.8282 32.6568 76.3421L29.2311 73.5672C29.2311 73.5672 36.6857 50.9883 39.5433 42.4676C42.401 33.9469 49.0298 32.44 50.9623 31.999C52.8947 31.5579 57.3276 34.7861 57.2925 36.0051Z" fill="white"/>
<mask id="mask2_540_3907" style="mask-type:luminance" maskUnits="userSpaceOnUse" x="29" y="31" width="30" height="52">
<path d="M57.2925 36.0051C57.2925 36.0051 58.9263 41.0832 58.4636 49.9653C58.001 58.8474 49.551 82.2594 49.551 82.2594L47.6244 82.1553C42.1859 81.8562 36.9642 79.8282 32.6568 76.3421L29.2311 73.5672C29.2311 73.5672 36.6857 50.9883 39.5433 42.4676C42.401 33.9469 49.0298 32.44 50.9623 31.999C52.8947 31.5579 57.3276 34.7861 57.2925 36.0051Z" fill="white"/>
</mask>
<g mask="url(#mask2_540_3907)">
<path d="M39.5433 42.4677C41.587 36.3727 45.5573 33.8918 48.3623 32.777C47.1911 33.6468 43.6015 36.5748 42.4361 40.8321C41.0424 45.947 44.8897 52.6423 44.8897 52.6423C44.8897 52.6423 44.837 52.2318 44.7668 51.6132C47.0271 56.8444 50.6636 64.6974 53.1699 69.7204L50.1542 64.3421L48.6316 60.7403L41.9032 64.8199L45.0596 60.287C45.0596 60.287 37.9915 66.5106 36.1821 68.9057C34.3726 71.3008 34.1091 73.9593 35.6843 76.6668C36.5063 77.8957 37.4923 78.9952 38.6122 79.9317C36.5027 79.0022 34.5168 77.7916 32.7037 76.3299L29.278 73.555C29.278 73.555 36.6857 50.9883 39.5433 42.4677Z" fill="#0F9EEA"/>
<g opacity="0.5">
<path d="M39.5433 42.4677C41.587 36.3727 45.5573 33.8918 48.3623 32.777C47.1911 33.6468 43.6015 36.5748 42.4361 40.8321C41.0424 45.947 44.8897 52.6423 44.8897 52.6423C44.8897 52.6423 44.837 52.2318 44.7668 51.6132C47.0271 56.8444 50.6636 64.6974 53.1699 69.7204L50.1542 64.3421L48.6316 60.7403L41.9032 64.8199L45.0596 60.287C45.0596 60.287 37.9915 66.5106 36.1821 68.9057C34.3726 71.3008 34.1091 73.9593 35.6843 76.6668C36.5063 77.8957 37.4923 78.9952 38.6122 79.9317C36.5027 79.0022 34.5168 77.7916 32.7037 76.3299L29.278 73.555C29.278 73.555 36.6857 50.9883 39.5433 42.4677Z" fill="white"/>
</g>
</g>
<path d="M57.2925 36.0051C57.2925 36.0051 58.9263 41.0832 58.4636 49.9653C58.001 58.8474 49.551 82.2594 49.551 82.2594L47.6244 82.1553C42.1859 81.8562 36.9642 79.8282 32.6568 76.3421L29.2311 73.5672C29.2311 73.5672 36.6857 50.9883 39.5433 42.4676C42.401 33.9469 49.0298 32.44 50.9623 31.999C52.8947 31.5579 57.3276 34.7861 57.2925 36.0051Z" stroke="#263238" stroke-linecap="round" stroke-linejoin="round"/>
<path d="M47.238 55.4784C47.238 55.4784 42.1961 51.8643 39.7073 50.1859" stroke="#263238" stroke-width="0.5" stroke-linecap="round" stroke-linejoin="round"/>
<path d="M40.3924 56.1401C39.9345 56.1009 39.479 56.0354 39.028 55.944" stroke="#263238" stroke-width="0.5" stroke-linecap="round" stroke-linejoin="round"/>
<path d="M48.5731 55.4539C46.4522 55.9078 44.2961 56.1579 42.1316 56.2012" stroke="#263238" stroke-width="0.5" stroke-linecap="round" stroke-linejoin="round"/>
<path d="M50.2069 29.7509L59.5997 34.5717L57.7141 38.0326L48.7546 32.5012L50.2069 29.7509Z" fill="white" stroke="#263238" stroke-linecap="round" stroke-linejoin="round"/>
<path d="M42.7406 46.535C43.4902 49.4753 54.7803 73.9042 55.8519 74.5045C56.9236 75.1048 88.7619 78.5412 88.7619 78.5412L90.0385 75.699L61.7254 66.3881L52.0456 40.6055" fill="white"/>
<mask id="mask3_540_3907" style="mask-type:luminance" maskUnits="userSpaceOnUse" x="42" y="40" width="49" height="39">
<path d="M42.7406 46.535C43.4902 49.4753 54.7803 73.9042 55.8519 74.5045C56.9236 75.1048 88.7619 78.5412 88.7619 78.5412L90.0385 75.699L61.7254 66.3881L52.0456 40.6055" fill="white"/>
</mask>
<g mask="url(#mask3_540_3907)">
<path d="M44.7667 51.6132C44.5325 49.5917 44.1109 45.3344 44.7257 46.0389C45.5338 46.9516 48.0636 54.9087 51.0793 60.5198C54.0951 66.1308 58.5514 68.0175 57.7609 68.3176C56.9704 68.6178 56.7361 71.4601 56.7361 71.4601L88.0592 78.4677C86.3375 78.2778 81.6177 77.7633 76.3474 77.163L55.8519 74.5045L53.1699 69.7204C50.6636 64.6974 47.0271 56.8444 44.7667 51.6132Z" fill="#0F9EEA"/>
<path opacity="0.5" d="M44.7667 51.6132C44.5325 49.5917 44.1109 45.3344 44.7257 46.0389C45.5338 46.9516 48.0636 54.9087 51.0793 60.5198C54.0951 66.1308 58.5514 68.0175 57.7609 68.3176C56.9704 68.6178 56.7361 71.4601 56.7361 71.4601L88.0592 78.4677C86.3375 78.2778 81.6177 77.7633 76.3474 77.163L55.8519 74.5045L53.1699 69.7204C50.6636 64.6974 47.0271 56.8444 44.7667 51.6132Z" fill="white"/>
</g>
<path d="M42.7406 46.535C43.4902 49.4753 54.7803 73.9042 55.8519 74.5045C56.9236 75.1048 88.7619 78.5412 88.7619 78.5412L90.0385 75.699L61.7254 66.3881L52.0456 40.6055" stroke="#263238" stroke-linecap="round" stroke-linejoin="round"/>
<path d="M88.6507 78.7435L90.0385 75.6807L98.5295 72.428C98.6519 72.4149 98.775 72.4423 98.8816 72.5065C98.9881 72.5707 99.0727 72.6683 99.1232 72.7856C99.1738 72.9029 99.1877 73.0338 99.1631 73.1598C99.1386 73.2858 99.0767 73.4006 98.9863 73.4877L95.9822 75.4418L98.5998 77.0406C99.3376 77.4694 102.476 78.7925 102.793 79.4479C103.413 80.7221 101.522 79.9012 101.071 79.8094C100.087 79.6072 99.4255 79.2642 97.7566 78.8844C97.5165 79.3744 101.387 80.863 101.856 81.1325C102.049 81.2489 102.353 81.3775 102.406 81.6348C102.617 82.6639 100.807 81.8737 100.392 81.7695C99.2205 81.4633 98.0494 81.108 96.8782 80.8017C97.739 81.2795 99.1444 81.745 100.005 82.2228C100.397 82.379 100.779 82.5632 101.147 82.7741C101.604 83.1417 101.346 83.6623 100.731 83.5766C100.057 83.4053 99.3965 83.1758 98.7579 82.8905C97.7917 82.5352 97.2295 82.1555 96.2633 81.8002C96.9894 82.2167 97.3584 82.5536 98.0903 82.9702C98.3714 83.1294 98.9921 83.3867 99.162 83.6868C99.7476 84.7404 97.1651 83.5827 96.8665 83.4234C95.8475 82.8844 94.6822 82.4985 93.7043 81.9043C93.5696 81.8185 92.0822 80.6792 92.0705 80.6792L88.6507 78.7435Z" fill="white" stroke="#263238" stroke-linecap="round" stroke-linejoin="round"/>
<path d="M64.7178 17.8612C64.7178 18.3757 64.911 18.7923 65.1394 18.7923C65.3678 18.7923 65.5551 18.3696 65.5551 17.855C65.5551 17.3405 65.3619 16.9178 65.1277 16.924C64.8934 16.9301 64.7178 17.365 64.7178 17.8612Z" fill="#263238"/>
<path d="M66.0353 24.7096C66.0353 24.7096 64.0267 25.0342 63.0019 23.6131" stroke="#263238" stroke-linecap="round" stroke-linejoin="round"/>
<path d="M65.8186 14.4002C65.4742 14.2893 65.1065 14.2846 64.7596 14.3867C64.4127 14.4888 64.1013 14.6934 63.8627 14.976" stroke="#263238" stroke-linecap="round" stroke-linejoin="round"/>
</svg>
