<svg width="123" height="24" viewBox="0 0 123 24" fill="none" xmlns="http://www.w3.org/2000/svg">
<path d="M17.5014 2.39465H0.648981L0 5.906H6.43368L2.95198 23.0523H6.9055L10.389 5.906H16.8524L17.5014 2.39465Z" fill="#222222"/>
<path d="M26.4732 6.96716C24.7806 6.96716 23.2511 7.35653 21.883 8.13352C20.5148 8.9105 19.4431 9.97338 18.6661 11.3204C17.8909 12.6674 17.5015 14.1775 17.5015 15.8508C17.5015 17.2872 17.8312 18.5518 18.4907 19.6427C19.1502 20.7337 20.0798 21.5755 21.2796 22.1666C22.4793 22.7559 23.8773 23.0523 25.4699 23.0523C27.8501 23.0523 29.8672 22.335 31.5194 20.8985L29.7198 18.5676C28.4605 19.5112 27.0836 19.9847 25.5874 19.9847C24.328 19.9847 23.3248 19.6603 22.5775 19.0113C21.8303 18.3624 21.4059 17.4679 21.3076 16.3261H33.291C33.4874 15.4807 33.5857 14.6441 33.5857 13.818C33.5857 11.7133 32.9507 10.0453 31.6826 8.81579C30.4144 7.58279 28.678 6.96716 26.4732 6.96716ZM21.6041 13.7548C21.9777 12.6341 22.6126 11.729 23.5072 11.0398C24.4017 10.3522 25.4208 10.0067 26.5626 10.0067C27.7238 10.0067 28.6096 10.3364 29.2182 10.9959C29.8286 11.6554 30.1127 12.5744 30.0741 13.7548H21.6041Z" fill="#222222"/>
<path d="M39.8282 11.0292C40.5666 10.5872 41.3875 10.3645 42.2926 10.3645C43.9852 10.3645 45.3024 10.945 46.2478 12.1061L48.8157 9.8927C48.1667 8.96838 47.3002 8.25454 46.218 7.75292C45.1358 7.2513 43.8764 7.00049 42.4399 7.00049C40.7666 7.00049 39.2564 7.37407 37.9093 8.12124C36.5622 8.86841 35.5046 9.91725 34.7363 11.2643C33.9698 12.6113 33.5857 14.1424 33.5857 15.8525C33.5857 17.2697 33.8856 18.5237 34.4855 19.6147C35.0854 20.7074 35.9308 21.5527 37.0235 22.1526C38.1163 22.7524 39.3792 23.0523 40.8157 23.0523C42.3504 23.0523 43.7221 22.777 44.9323 22.2262C46.1426 21.6755 47.1511 20.888 47.958 19.8655L45.7444 17.8888C44.6815 19.1288 43.2064 19.748 41.3173 19.748C40.1562 19.748 39.2213 19.3638 38.5127 18.5974C37.8041 17.8292 37.4498 16.8259 37.4498 15.5877C37.4498 14.5651 37.6602 13.6601 38.0847 12.8726C38.5092 12.0868 39.0897 11.4712 39.8282 11.0292Z" fill="#222222"/>
<path d="M66.2294 12.1324C66.2294 10.5785 65.7225 9.3437 64.7087 8.42816C63.6949 7.51261 62.3039 7.0566 60.5324 7.0566C58.3487 7.0566 56.6368 7.87392 55.3967 9.50682L57.0209 1.15466H53.1551L48.8157 23.0523H52.6815L54.3636 14.7002C54.6197 13.4409 55.1792 12.4271 56.0457 11.6606C56.9121 10.8942 57.9049 10.5101 59.0257 10.5101C60.0097 10.5101 60.7762 10.7661 61.3287 11.2765C61.8795 11.7887 62.1549 12.4867 62.1549 13.3725C62.1549 13.6671 62.125 13.9828 62.0672 14.3161L60.3254 23.0523H64.1913L66.0505 13.7566C66.1698 13.1865 66.2294 12.6446 66.2294 12.1324Z" fill="#222222"/>
<path d="M81.3277 2.39294L79.6158 11.0099H70.2599L71.9718 2.39294H67.308L66.2292 7.78449C66.4503 7.92655 66.6572 8.0844 66.8519 8.2598C67.8763 9.18586 68.3902 10.4347 68.3902 12.0062C68.3902 12.5236 68.3305 13.0708 68.2113 13.6478L66.331 23.0523H67.8412L69.4636 14.8773H78.8195L77.197 23.0523H81.8609L85.9916 2.39294H81.3277Z" fill="#30B7EE"/>
<path d="M97.7084 15.2018C97.4716 16.3629 96.9665 17.303 96.1895 18.0203C95.4124 18.7395 94.5214 19.0973 93.5181 19.0973C92.6516 19.0973 91.9781 18.8657 91.4958 18.4045C91.0134 17.9432 90.7731 17.317 90.7731 16.5313C90.7731 16.2559 90.8029 15.97 90.8608 15.6754L92.5727 6.96892H88.0579L86.1689 16.3243C86.0513 16.875 85.9917 17.3977 85.9917 17.8888C85.9917 19.4621 86.4933 20.7179 87.4966 21.651C88.4999 22.5858 89.868 23.0523 91.5992 23.0523C93.6655 23.0523 95.3475 22.2561 96.6455 20.6617L96.2035 22.8454H100.778L103.907 6.96716H99.3624L97.7084 15.2018Z" fill="#30B7EE"/>
<path d="M121.849 10.1996C121.317 9.12796 120.575 8.29661 119.621 7.70554C118.667 7.11447 117.571 6.81981 116.331 6.81981C115.347 6.81981 114.417 7.01098 113.542 7.39509C112.666 7.7792 111.874 8.32467 111.165 9.03325L112.789 0.947693H108.274L103.907 22.8453H108.452L109.013 20.0128C109.446 20.9967 110.1 21.7492 110.976 22.2701C111.851 22.791 112.919 23.0523 114.178 23.0523C115.752 23.0523 117.188 22.6489 118.488 21.8421C119.786 21.0353 120.805 19.9286 121.543 18.5219C122.282 17.1153 122.65 15.5666 122.65 13.8741C122.647 12.4972 122.38 11.273 121.849 10.1996ZM117.451 16.6628C117.039 17.4398 116.478 18.0554 115.769 18.5079C115.061 18.9604 114.294 19.1867 113.466 19.1867C112.423 19.1867 111.588 18.8464 110.958 18.1677C110.328 17.4889 110.014 16.5891 110.014 15.4666C110.014 14.5616 110.221 13.7215 110.634 12.9427C111.048 12.1657 111.607 11.5519 112.316 11.0976C113.024 10.6451 113.791 10.4188 114.619 10.4188C115.661 10.4188 116.497 10.7538 117.127 11.4221C117.757 12.0903 118.071 12.9971 118.071 14.1371C118.072 15.0439 117.865 15.8858 117.451 16.6628Z" fill="#30B7EE"/>
</svg>
