<svg width="21" height="23" viewBox="0 0 21 23" fill="none" xmlns="http://www.w3.org/2000/svg">
<g clip-path="url(#clip0_947_4706)">
<path d="M3.35714 1.42847C1.78125 1.42847 0.5 2.70972 0.5 4.28561V18.5713C0.5 20.1472 1.78125 21.4285 3.35714 21.4285H17.6429C19.2188 21.4285 20.5 20.1472 20.5 18.5713V4.28561C20.5 2.70972 19.2188 1.42847 17.6429 1.42847H3.35714ZM16.6205 5.17847L11.9866 10.4731L17.4375 17.6785H13.1696L9.83036 13.3079L6.00446 17.6785H3.88393L8.83929 12.0133L3.61161 5.17847H7.98661L11.0089 9.174L14.5 5.17847H16.6205ZM14.933 16.4106L7.34821 6.37936H6.08482L13.7545 16.4106H14.9286H14.933Z" fill="#222222"/>
</g>
<defs>
<clipPath id="clip0_947_4706">
<rect width="20" height="22.8571" fill="white" transform="translate(0.5)"/>
</clipPath>
</defs>
</svg>
