<svg width="19" height="21" viewBox="0 0 19 21" fill="none" xmlns="http://www.w3.org/2000/svg">
<path d="M2.19354 10.8526L9.61914 3.42702C9.97673 3.06953 10.4012 2.78596 10.8684 2.59252C11.3356 2.39908 11.8363 2.29955 12.3419 2.29961C12.8476 2.29968 13.3483 2.39934 13.8154 2.5929C14.2825 2.78646 14.7069 3.07013 15.0644 3.42772C15.4219 3.78531 15.7055 4.20982 15.8989 4.67699C16.0924 5.14417 16.1919 5.64488 16.1918 6.15052C16.1918 6.65616 16.0921 7.15684 15.8986 7.62397C15.705 8.0911 15.4213 8.51553 15.0637 8.87302L6.15414 17.7826C5.82573 18.111 5.3803 18.2955 4.91584 18.2955C4.45139 18.2955 4.00596 18.111 3.67754 17.7826C3.34913 17.4542 3.16462 17.0088 3.16462 16.5443C3.16462 16.0799 3.34913 15.6344 3.67754 15.306L11.5973 7.38622C11.7828 7.18718 11.8838 6.92391 11.879 6.65189C11.8742 6.37987 11.764 6.12033 11.5716 5.92795C11.3792 5.73557 11.1197 5.62538 10.8477 5.62058C10.5757 5.61578 10.3124 5.71675 10.1133 5.90222L2.19354 13.822C1.47136 14.5442 1.06564 15.5237 1.06564 16.545C1.06564 17.5663 1.47136 18.5458 2.19354 19.268C2.91573 19.9902 3.89522 20.3959 4.91654 20.3959C5.93787 20.3959 6.91736 19.9902 7.63954 19.268L16.5477 10.357C17.6421 9.23685 18.2508 7.73038 18.2416 6.16438C18.2325 4.59837 17.6064 3.09909 16.499 1.99174C15.3917 0.884384 13.8924 0.258244 12.3264 0.249124C10.7604 0.240005 9.25392 0.848641 8.13374 1.94302L0.709543 9.36722C0.524071 9.56627 0.423098 9.82953 0.427898 10.1016C0.432697 10.3736 0.542894 10.6331 0.735272 10.8255C0.92765 11.0179 1.18719 11.1281 1.45921 11.1329C1.73123 11.1377 1.9945 11.0367 2.19354 10.8512V10.8526Z" fill="#505050"/>
</svg>
