<svg width="28" height="28" viewBox="0 0 28 28" fill="none" xmlns="http://www.w3.org/2000/svg">
<path d="M27.4158 13.901C27.4158 21.365 21.365 27.4158 13.901 27.4158C6.43694 27.4158 0.386139 21.365 0.386139 13.901C0.386139 6.43694 6.43694 0.386139 13.901 0.386139C21.365 0.386139 27.4158 6.43694 27.4158 13.901Z" stroke="#505050" stroke-width="0.772277"/>
<path d="M13.9009 16.2179C11.103 16.2179 9.24642 15.8919 6.95044 15.4456C6.42606 15.3444 5.40588 15.4456 5.40588 16.9901C5.40588 20.0792 8.9545 23.9406 13.9009 23.9406C18.8466 23.9406 22.396 20.0792 22.396 16.9901C22.396 15.4456 21.3758 15.3436 20.8514 15.4456C18.5554 15.8919 16.6989 16.2179 13.9009 16.2179Z" fill="#505050"/>
<path d="M6.95044 16.9901C6.95044 16.9901 9.26727 17.7624 13.9009 17.7624C18.5346 17.7624 20.8514 16.9901 20.8514 16.9901C20.8514 16.9901 19.3069 20.0792 13.9009 20.0792C8.49499 20.0792 6.95044 16.9901 6.95044 16.9901Z" fill="#DEDEDE"/>
<path d="M9.26727 13.1287C10.3336 13.1287 11.198 11.9186 11.198 10.4258C11.198 8.93295 10.3336 7.72279 9.26727 7.72279C8.20098 7.72279 7.33658 8.93295 7.33658 10.4258C7.33658 11.9186 8.20098 13.1287 9.26727 13.1287Z" fill="#505050"/>
<path d="M18.5346 13.1287C19.6009 13.1287 20.4653 11.9186 20.4653 10.4258C20.4653 8.93295 19.6009 7.72279 18.5346 7.72279C17.4683 7.72279 16.6039 8.93295 16.6039 10.4258C16.6039 11.9186 17.4683 13.1287 18.5346 13.1287Z" fill="#505050"/>
</svg>
