<svg width="29" height="28" viewBox="0 0 29 28" fill="none" xmlns="http://www.w3.org/2000/svg">
<path d="M27.7327 14.099C27.7327 21.563 21.6819 27.6138 14.2179 27.6138C6.75384 27.6138 0.703033 21.563 0.703033 14.099C0.703033 6.63494 6.75384 0.584137 14.2179 0.584137C21.6819 0.584137 27.7327 6.63494 27.7327 14.099Z" fill="#FFCC4D" stroke="#FFB800" stroke-width="0.772277"/>
<path d="M14.2178 16.4158C11.4199 16.4158 9.56331 16.0899 7.26733 15.6436C6.74296 15.5424 5.72278 15.6436 5.72278 17.1881C5.72278 20.2772 9.27139 24.1386 14.2178 24.1386C19.1635 24.1386 22.7129 20.2772 22.7129 17.1881C22.7129 15.6436 21.6927 15.5416 21.1683 15.6436C18.8723 16.0899 17.0158 16.4158 14.2178 16.4158Z" fill="#664500"/>
<path d="M7.26733 17.1881C7.26733 17.1881 9.58417 17.9604 14.2178 17.9604C18.8515 17.9604 21.1683 17.1881 21.1683 17.1881C21.1683 17.1881 19.6238 20.2772 14.2178 20.2772C8.81189 20.2772 7.26733 17.1881 7.26733 17.1881Z" fill="white"/>
<path d="M9.58417 13.3267C10.6505 13.3267 11.5149 12.1166 11.5149 10.6238C11.5149 9.13095 10.6505 7.92079 9.58417 7.92079C8.51787 7.92079 7.65347 9.13095 7.65347 10.6238C7.65347 12.1166 8.51787 13.3267 9.58417 13.3267Z" fill="#664500"/>
<path d="M18.8515 13.3267C19.9178 13.3267 20.7822 12.1166 20.7822 10.6238C20.7822 9.13095 19.9178 7.92079 18.8515 7.92079C17.7852 7.92079 16.9208 9.13095 16.9208 10.6238C16.9208 12.1166 17.7852 13.3267 18.8515 13.3267Z" fill="#664500"/>
</svg>
