<svg width="23" height="22" viewBox="0 0 23 22" fill="none" xmlns="http://www.w3.org/2000/svg">
<path d="M21.7986 9.94432L1.96531 0.610992C1.76562 0.51651 1.54318 0.48073 1.32393 0.50782C1.10468 0.534911 0.897646 0.623756 0.726955 0.764002C0.556263 0.904248 0.428946 1.09012 0.359842 1.29995C0.290737 1.50978 0.282692 1.73493 0.336644 1.94916L2.59881 11.0002L0.336644 20.0512C0.282187 20.2655 0.289881 20.4908 0.358824 20.7009C0.427768 20.911 0.55511 21.0972 0.725957 21.2375C0.896803 21.3779 1.10409 21.4667 1.32357 21.4936C1.54304 21.5205 1.76564 21.4843 1.96531 21.3893L21.7986 12.056C21.9991 11.9618 22.1685 11.8125 22.2873 11.6255C22.406 11.4385 22.469 11.2216 22.469 11.0002C22.469 10.7787 22.406 10.5618 22.2873 10.3748C22.1685 10.1879 21.9991 10.0385 21.7986 9.94432ZM3.19614 18.23L4.17498 14.3135L10.8016 11.0002L4.17498 7.68682L3.19614 3.77032L18.5611 11.0002L3.19614 18.23Z" fill="#505050"/>
</svg>
